<mxfile host="app.diagrams.net" modified="2021-04-06T08:38:29.930Z" agent="5.0 (Windows NT 10.0; Win64; x64) AppleWebKit/537.36 (KHTML, like Gecko) Chrome/89.0.4389.114 Safari/537.36" etag="RcOzS_DblDGD8KyqqWA5" version="14.5.7" type="github">
  <diagram id="C5RBs43oDa-KdzZeNtuy" name="Page-1">
    <mxGraphModel dx="1422" dy="747" grid="1" gridSize="10" guides="1" tooltips="1" connect="1" arrows="1" fold="1" page="1" pageScale="1" pageWidth="1169" pageHeight="827" math="0" shadow="0">
      <root>
        <mxCell id="WIyWlLk6GJQsqaUBKTNV-0" />
        <mxCell id="WIyWlLk6GJQsqaUBKTNV-1" parent="WIyWlLk6GJQsqaUBKTNV-0" />
        <mxCell id="-aiQwq8CIg034yayet1E-0" value="Dali::Accessibility&#xa;::Accessible" style="swimlane;fontStyle=1;align=center;verticalAlign=top;childLayout=stackLayout;horizontal=1;startSize=40;horizontalStack=0;resizeParent=1;resizeParentMax=0;resizeLast=0;collapsible=1;marginBottom=0;" vertex="1" parent="WIyWlLk6GJQsqaUBKTNV-1">
          <mxGeometry x="165" y="80" width="150" height="130" as="geometry" />
        </mxCell>
        <mxCell id="-aiQwq8CIg034yayet1E-1" value="+" style="text;strokeColor=none;fillColor=none;align=left;verticalAlign=top;spacingLeft=4;spacingRight=4;overflow=hidden;rotatable=0;points=[[0,0.5],[1,0.5]];portConstraint=eastwest;" vertex="1" parent="-aiQwq8CIg034yayet1E-0">
          <mxGeometry y="40" width="150" height="26" as="geometry" />
        </mxCell>
        <mxCell id="-aiQwq8CIg034yayet1E-2" value="" style="line;strokeWidth=1;fillColor=none;align=left;verticalAlign=middle;spacingTop=-1;spacingLeft=3;spacingRight=3;rotatable=0;labelPosition=right;points=[];portConstraint=eastwest;" vertex="1" parent="-aiQwq8CIg034yayet1E-0">
          <mxGeometry y="66" width="150" height="8" as="geometry" />
        </mxCell>
        <mxCell id="-aiQwq8CIg034yayet1E-3" value="+ EmitFocused()&#xa;+ EmitStateChanged()" style="text;strokeColor=none;fillColor=none;align=left;verticalAlign=top;spacingLeft=4;spacingRight=4;overflow=hidden;rotatable=0;points=[[0,0.5],[1,0.5]];portConstraint=eastwest;" vertex="1" parent="-aiQwq8CIg034yayet1E-0">
          <mxGeometry y="74" width="150" height="56" as="geometry" />
        </mxCell>
        <mxCell id="-aiQwq8CIg034yayet1E-4" value="Dali::Toolkit::Control&#xa;::Impl::AccessibleImpl" style="swimlane;fontStyle=1;align=center;verticalAlign=top;childLayout=stackLayout;horizontal=1;startSize=40;horizontalStack=0;resizeParent=1;resizeParentMax=0;resizeLast=0;collapsible=1;marginBottom=0;" vertex="1" parent="WIyWlLk6GJQsqaUBKTNV-1">
          <mxGeometry x="160" y="260" width="160" height="100" as="geometry" />
        </mxCell>
        <mxCell id="-aiQwq8CIg034yayet1E-5" value="+" style="text;strokeColor=none;fillColor=none;align=left;verticalAlign=top;spacingLeft=4;spacingRight=4;overflow=hidden;rotatable=0;points=[[0,0.5],[1,0.5]];portConstraint=eastwest;" vertex="1" parent="-aiQwq8CIg034yayet1E-4">
          <mxGeometry y="40" width="160" height="26" as="geometry" />
        </mxCell>
        <mxCell id="-aiQwq8CIg034yayet1E-6" value="" style="line;strokeWidth=1;fillColor=none;align=left;verticalAlign=middle;spacingTop=-1;spacingLeft=3;spacingRight=3;rotatable=0;labelPosition=right;points=[];portConstraint=eastwest;" vertex="1" parent="-aiQwq8CIg034yayet1E-4">
          <mxGeometry y="66" width="160" height="8" as="geometry" />
        </mxCell>
        <mxCell id="-aiQwq8CIg034yayet1E-7" value="+ GetName" style="text;strokeColor=none;fillColor=none;align=left;verticalAlign=top;spacingLeft=4;spacingRight=4;overflow=hidden;rotatable=0;points=[[0,0.5],[1,0.5]];portConstraint=eastwest;" vertex="1" parent="-aiQwq8CIg034yayet1E-4">
          <mxGeometry y="74" width="160" height="26" as="geometry" />
        </mxCell>
        <mxCell id="-aiQwq8CIg034yayet1E-9" value="" style="endArrow=block;endSize=16;endFill=0;html=1;exitX=0.5;exitY=0;exitDx=0;exitDy=0;" edge="1" parent="WIyWlLk6GJQsqaUBKTNV-1" source="-aiQwq8CIg034yayet1E-4" target="-aiQwq8CIg034yayet1E-3">
          <mxGeometry width="160" relative="1" as="geometry">
            <mxPoint x="330" y="280" as="sourcePoint" />
            <mxPoint x="490" y="280" as="targetPoint" />
          </mxGeometry>
        </mxCell>
        <mxCell id="-aiQwq8CIg034yayet1E-10" value="Dali::Accessibility&#xa;::Bridge" style="swimlane;fontStyle=1;align=center;verticalAlign=top;childLayout=stackLayout;horizontal=1;startSize=40;horizontalStack=0;resizeParent=1;resizeParentMax=0;resizeLast=0;collapsible=1;marginBottom=0;" vertex="1" parent="WIyWlLk6GJQsqaUBKTNV-1">
          <mxGeometry x="544" y="80" width="160" height="100" as="geometry" />
        </mxCell>
        <mxCell id="-aiQwq8CIg034yayet1E-11" value="+" style="text;strokeColor=none;fillColor=none;align=left;verticalAlign=top;spacingLeft=4;spacingRight=4;overflow=hidden;rotatable=0;points=[[0,0.5],[1,0.5]];portConstraint=eastwest;" vertex="1" parent="-aiQwq8CIg034yayet1E-10">
          <mxGeometry y="40" width="160" height="26" as="geometry" />
        </mxCell>
        <mxCell id="-aiQwq8CIg034yayet1E-12" value="" style="line;strokeWidth=1;fillColor=none;align=left;verticalAlign=middle;spacingTop=-1;spacingLeft=3;spacingRight=3;rotatable=0;labelPosition=right;points=[];portConstraint=eastwest;" vertex="1" parent="-aiQwq8CIg034yayet1E-10">
          <mxGeometry y="66" width="160" height="8" as="geometry" />
        </mxCell>
        <mxCell id="-aiQwq8CIg034yayet1E-13" value="+" style="text;strokeColor=none;fillColor=none;align=left;verticalAlign=top;spacingLeft=4;spacingRight=4;overflow=hidden;rotatable=0;points=[[0,0.5],[1,0.5]];portConstraint=eastwest;" vertex="1" parent="-aiQwq8CIg034yayet1E-10">
          <mxGeometry y="74" width="160" height="26" as="geometry" />
        </mxCell>
        <mxCell id="-aiQwq8CIg034yayet1E-14" value="BridgeBase" style="swimlane;fontStyle=1;align=center;verticalAlign=top;childLayout=stackLayout;horizontal=1;startSize=26;horizontalStack=0;resizeParent=1;resizeParentMax=0;resizeLast=0;collapsible=1;marginBottom=0;" vertex="1" parent="WIyWlLk6GJQsqaUBKTNV-1">
          <mxGeometry x="544" y="230" width="160" height="86" as="geometry" />
        </mxCell>
        <mxCell id="-aiQwq8CIg034yayet1E-15" value="+" style="text;strokeColor=none;fillColor=none;align=left;verticalAlign=top;spacingLeft=4;spacingRight=4;overflow=hidden;rotatable=0;points=[[0,0.5],[1,0.5]];portConstraint=eastwest;" vertex="1" parent="-aiQwq8CIg034yayet1E-14">
          <mxGeometry y="26" width="160" height="26" as="geometry" />
        </mxCell>
        <mxCell id="-aiQwq8CIg034yayet1E-16" value="" style="line;strokeWidth=1;fillColor=none;align=left;verticalAlign=middle;spacingTop=-1;spacingLeft=3;spacingRight=3;rotatable=0;labelPosition=right;points=[];portConstraint=eastwest;" vertex="1" parent="-aiQwq8CIg034yayet1E-14">
          <mxGeometry y="52" width="160" height="8" as="geometry" />
        </mxCell>
        <mxCell id="-aiQwq8CIg034yayet1E-17" value="+ method(type): type" style="text;strokeColor=none;fillColor=none;align=left;verticalAlign=top;spacingLeft=4;spacingRight=4;overflow=hidden;rotatable=0;points=[[0,0.5],[1,0.5]];portConstraint=eastwest;" vertex="1" parent="-aiQwq8CIg034yayet1E-14">
          <mxGeometry y="60" width="160" height="26" as="geometry" />
        </mxCell>
        <mxCell id="-aiQwq8CIg034yayet1E-18" value="BridgeAccessible" style="swimlane;fontStyle=1;align=center;verticalAlign=top;childLayout=stackLayout;horizontal=1;startSize=26;horizontalStack=0;resizeParent=1;resizeParentMax=0;resizeLast=0;collapsible=1;marginBottom=0;" vertex="1" parent="WIyWlLk6GJQsqaUBKTNV-1">
          <mxGeometry x="475" y="371" width="160" height="86" as="geometry" />
        </mxCell>
        <mxCell id="-aiQwq8CIg034yayet1E-19" value="+" style="text;strokeColor=none;fillColor=none;align=left;verticalAlign=top;spacingLeft=4;spacingRight=4;overflow=hidden;rotatable=0;points=[[0,0.5],[1,0.5]];portConstraint=eastwest;" vertex="1" parent="-aiQwq8CIg034yayet1E-18">
          <mxGeometry y="26" width="160" height="26" as="geometry" />
        </mxCell>
        <mxCell id="-aiQwq8CIg034yayet1E-20" value="" style="line;strokeWidth=1;fillColor=none;align=left;verticalAlign=middle;spacingTop=-1;spacingLeft=3;spacingRight=3;rotatable=0;labelPosition=right;points=[];portConstraint=eastwest;" vertex="1" parent="-aiQwq8CIg034yayet1E-18">
          <mxGeometry y="52" width="160" height="8" as="geometry" />
        </mxCell>
        <mxCell id="-aiQwq8CIg034yayet1E-21" value="+ GetName()" style="text;strokeColor=none;fillColor=none;align=left;verticalAlign=top;spacingLeft=4;spacingRight=4;overflow=hidden;rotatable=0;points=[[0,0.5],[1,0.5]];portConstraint=eastwest;" vertex="1" parent="-aiQwq8CIg034yayet1E-18">
          <mxGeometry y="60" width="160" height="26" as="geometry" />
        </mxCell>
        <mxCell id="-aiQwq8CIg034yayet1E-22" value="BridgeObject" style="swimlane;fontStyle=1;align=center;verticalAlign=top;childLayout=stackLayout;horizontal=1;startSize=26;horizontalStack=0;resizeParent=1;resizeParentMax=0;resizeLast=0;collapsible=1;marginBottom=0;" vertex="1" parent="WIyWlLk6GJQsqaUBKTNV-1">
          <mxGeometry x="676" y="371" width="160" height="86" as="geometry" />
        </mxCell>
        <mxCell id="-aiQwq8CIg034yayet1E-23" value="+" style="text;strokeColor=none;fillColor=none;align=left;verticalAlign=top;spacingLeft=4;spacingRight=4;overflow=hidden;rotatable=0;points=[[0,0.5],[1,0.5]];portConstraint=eastwest;" vertex="1" parent="-aiQwq8CIg034yayet1E-22">
          <mxGeometry y="26" width="160" height="26" as="geometry" />
        </mxCell>
        <mxCell id="-aiQwq8CIg034yayet1E-24" value="" style="line;strokeWidth=1;fillColor=none;align=left;verticalAlign=middle;spacingTop=-1;spacingLeft=3;spacingRight=3;rotatable=0;labelPosition=right;points=[];portConstraint=eastwest;" vertex="1" parent="-aiQwq8CIg034yayet1E-22">
          <mxGeometry y="52" width="160" height="8" as="geometry" />
        </mxCell>
        <mxCell id="-aiQwq8CIg034yayet1E-25" value="# EmitStateChanged()&#xa;" style="text;strokeColor=none;fillColor=none;align=left;verticalAlign=top;spacingLeft=4;spacingRight=4;overflow=hidden;rotatable=0;points=[[0,0.5],[1,0.5]];portConstraint=eastwest;" vertex="1" parent="-aiQwq8CIg034yayet1E-22">
          <mxGeometry y="60" width="160" height="26" as="geometry" />
        </mxCell>
        <mxCell id="-aiQwq8CIg034yayet1E-26" value="" style="endArrow=block;endSize=16;endFill=0;html=1;exitX=0.5;exitY=0;exitDx=0;exitDy=0;" edge="1" parent="WIyWlLk6GJQsqaUBKTNV-1" target="-aiQwq8CIg034yayet1E-13">
          <mxGeometry width="160" relative="1" as="geometry">
            <mxPoint x="624" y="230" as="sourcePoint" />
            <mxPoint x="620" y="181" as="targetPoint" />
          </mxGeometry>
        </mxCell>
        <mxCell id="-aiQwq8CIg034yayet1E-27" value="" style="endArrow=block;endSize=16;endFill=0;html=1;entryX=0.488;entryY=0.962;entryDx=0;entryDy=0;entryPerimeter=0;exitX=0.406;exitY=-0.035;exitDx=0;exitDy=0;exitPerimeter=0;" edge="1" parent="WIyWlLk6GJQsqaUBKTNV-1" source="-aiQwq8CIg034yayet1E-18" target="-aiQwq8CIg034yayet1E-17">
          <mxGeometry width="160" relative="1" as="geometry">
            <mxPoint x="634" y="240" as="sourcePoint" />
            <mxPoint x="636.0799999999999" y="190" as="targetPoint" />
            <Array as="points">
              <mxPoint x="540" y="350" />
              <mxPoint x="622" y="350" />
            </Array>
          </mxGeometry>
        </mxCell>
        <mxCell id="-aiQwq8CIg034yayet1E-28" value="" style="endArrow=block;endSize=16;endFill=0;html=1;entryX=0.65;entryY=0.962;entryDx=0;entryDy=0;entryPerimeter=0;exitX=0.306;exitY=0.012;exitDx=0;exitDy=0;exitPerimeter=0;" edge="1" parent="WIyWlLk6GJQsqaUBKTNV-1" source="-aiQwq8CIg034yayet1E-22" target="-aiQwq8CIg034yayet1E-17">
          <mxGeometry width="160" relative="1" as="geometry">
            <mxPoint x="618.96" y="366.99" as="sourcePoint" />
            <mxPoint x="632.0799999999999" y="325.01199999999994" as="targetPoint" />
            <Array as="points">
              <mxPoint x="725" y="350" />
              <mxPoint x="648" y="350" />
            </Array>
          </mxGeometry>
        </mxCell>
        <mxCell id="-aiQwq8CIg034yayet1E-30" value="&amp;lt;&amp;lt;friend&amp;gt;&amp;gt;" style="endArrow=none;html=1;edgeStyle=orthogonalEdgeStyle;exitX=1;exitY=0.5;exitDx=0;exitDy=0;entryX=0;entryY=0.5;entryDx=0;entryDy=0;dashed=1;" edge="1" parent="WIyWlLk6GJQsqaUBKTNV-1" source="-aiQwq8CIg034yayet1E-1" target="-aiQwq8CIg034yayet1E-11">
          <mxGeometry relative="1" as="geometry">
            <mxPoint x="315" y="100" as="sourcePoint" />
            <mxPoint x="410" y="133" as="targetPoint" />
          </mxGeometry>
        </mxCell>
        <mxCell id="-aiQwq8CIg034yayet1E-35" value="BridgeImpl" style="swimlane;fontStyle=1;align=center;verticalAlign=top;childLayout=stackLayout;horizontal=1;startSize=26;horizontalStack=0;resizeParent=1;resizeParentMax=0;resizeLast=0;collapsible=1;marginBottom=0;" vertex="1" parent="WIyWlLk6GJQsqaUBKTNV-1">
          <mxGeometry x="571" y="520" width="160" height="86" as="geometry" />
        </mxCell>
        <mxCell id="-aiQwq8CIg034yayet1E-36" value="+" style="text;strokeColor=none;fillColor=none;align=left;verticalAlign=top;spacingLeft=4;spacingRight=4;overflow=hidden;rotatable=0;points=[[0,0.5],[1,0.5]];portConstraint=eastwest;" vertex="1" parent="-aiQwq8CIg034yayet1E-35">
          <mxGeometry y="26" width="160" height="26" as="geometry" />
        </mxCell>
        <mxCell id="-aiQwq8CIg034yayet1E-37" value="" style="line;strokeWidth=1;fillColor=none;align=left;verticalAlign=middle;spacingTop=-1;spacingLeft=3;spacingRight=3;rotatable=0;labelPosition=right;points=[];portConstraint=eastwest;" vertex="1" parent="-aiQwq8CIg034yayet1E-35">
          <mxGeometry y="52" width="160" height="8" as="geometry" />
        </mxCell>
        <mxCell id="-aiQwq8CIg034yayet1E-38" value="+Initialize()" style="text;strokeColor=none;fillColor=none;align=left;verticalAlign=top;spacingLeft=4;spacingRight=4;overflow=hidden;rotatable=0;points=[[0,0.5],[1,0.5]];portConstraint=eastwest;" vertex="1" parent="-aiQwq8CIg034yayet1E-35">
          <mxGeometry y="60" width="160" height="26" as="geometry" />
        </mxCell>
        <mxCell id="-aiQwq8CIg034yayet1E-39" value="" style="endArrow=block;endSize=16;endFill=0;html=1;entryX=0.594;entryY=0.962;entryDx=0;entryDy=0;entryPerimeter=0;exitX=0.406;exitY=-0.035;exitDx=0;exitDy=0;exitPerimeter=0;" edge="1" parent="WIyWlLk6GJQsqaUBKTNV-1">
          <mxGeometry width="160" relative="1" as="geometry">
            <mxPoint x="591" y="520" as="sourcePoint" />
            <mxPoint x="591.04" y="456.01199999999994" as="targetPoint" />
            <Array as="points">
              <mxPoint x="591.04" y="502.01" />
            </Array>
          </mxGeometry>
        </mxCell>
        <mxCell id="-aiQwq8CIg034yayet1E-40" value="" style="endArrow=block;endSize=16;endFill=0;html=1;entryX=0.594;entryY=0.962;entryDx=0;entryDy=0;entryPerimeter=0;exitX=0.406;exitY=-0.035;exitDx=0;exitDy=0;exitPerimeter=0;" edge="1" parent="WIyWlLk6GJQsqaUBKTNV-1">
          <mxGeometry width="160" relative="1" as="geometry">
            <mxPoint x="711" y="520" as="sourcePoint" />
            <mxPoint x="711.04" y="456.01199999999994" as="targetPoint" />
            <Array as="points">
              <mxPoint x="711.04" y="502.01" />
            </Array>
          </mxGeometry>
        </mxCell>
        <mxCell id="-aiQwq8CIg034yayet1E-41" value="Dali::Toolkit::Internal&#xa;::Button::AccessibleImpl" style="swimlane;fontStyle=1;align=center;verticalAlign=top;childLayout=stackLayout;horizontal=1;startSize=40;horizontalStack=0;resizeParent=1;resizeParentMax=0;resizeLast=0;collapsible=1;marginBottom=0;" vertex="1" parent="WIyWlLk6GJQsqaUBKTNV-1">
          <mxGeometry x="160" y="410" width="160" height="100" as="geometry" />
        </mxCell>
        <mxCell id="-aiQwq8CIg034yayet1E-42" value="+" style="text;strokeColor=none;fillColor=none;align=left;verticalAlign=top;spacingLeft=4;spacingRight=4;overflow=hidden;rotatable=0;points=[[0,0.5],[1,0.5]];portConstraint=eastwest;" vertex="1" parent="-aiQwq8CIg034yayet1E-41">
          <mxGeometry y="40" width="160" height="26" as="geometry" />
        </mxCell>
        <mxCell id="-aiQwq8CIg034yayet1E-43" value="" style="line;strokeWidth=1;fillColor=none;align=left;verticalAlign=middle;spacingTop=-1;spacingLeft=3;spacingRight=3;rotatable=0;labelPosition=right;points=[];portConstraint=eastwest;" vertex="1" parent="-aiQwq8CIg034yayet1E-41">
          <mxGeometry y="66" width="160" height="8" as="geometry" />
        </mxCell>
        <mxCell id="-aiQwq8CIg034yayet1E-44" value="+ GetName" style="text;strokeColor=none;fillColor=none;align=left;verticalAlign=top;spacingLeft=4;spacingRight=4;overflow=hidden;rotatable=0;points=[[0,0.5],[1,0.5]];portConstraint=eastwest;" vertex="1" parent="-aiQwq8CIg034yayet1E-41">
          <mxGeometry y="74" width="160" height="26" as="geometry" />
        </mxCell>
        <mxCell id="-aiQwq8CIg034yayet1E-45" value="" style="endArrow=block;endSize=16;endFill=0;html=1;exitX=0.5;exitY=0;exitDx=0;exitDy=0;" edge="1" parent="WIyWlLk6GJQsqaUBKTNV-1" source="-aiQwq8CIg034yayet1E-41">
          <mxGeometry width="160" relative="1" as="geometry">
            <mxPoint x="330" y="430" as="sourcePoint" />
            <mxPoint x="240" y="360" as="targetPoint" />
          </mxGeometry>
        </mxCell>
      </root>
    </mxGraphModel>
  </diagram>
</mxfile>
